<svg id="Layer_1" data-name="Layer 1" xmlns="http://www.w3.org/2000/svg" viewBox="0 0 202.87 201.64"><defs><style>.cls-1{fill:#010101;}.cls-2{fill:#fff;}</style></defs><title>facebook-solidblack</title><path class="cls-1" d="M370.64,231.55c0-55.68-45.41-100.81-101.44-100.81S167.77,175.87,167.77,231.55c0,50.33,37.09,92,85.59,99.6V260.7H227.6V231.55h25.76V209.34c0-25.27,15.14-39.22,38.31-39.22a156.67,156.67,0,0,1,22.7,2V196.9H301.58c-12.6,0-16.53,7.77-16.53,15.74v18.91h28.14l-4.5,29.15H285.05v70.45C333.55,323.58,370.64,281.88,370.64,231.55Z" transform="translate(-167.77 -130.74)"/><path class="cls-2" d="M308.69,260.7l4.5-29.15H285.05V212.64c0-8,3.93-15.74,16.53-15.74h12.79V172.09a156.67,156.67,0,0,0-22.7-2c-23.17,0-38.31,13.95-38.31,39.22v22.21H227.6V260.7h25.76v70.45a103.51,103.51,0,0,0,31.69,0V260.7Z" transform="translate(-167.77 -130.74)"/></svg>