<svg id="Layer_1" data-name="Layer 1" xmlns="http://www.w3.org/2000/svg" viewBox="0 0 202.59 202.59"><defs><style>.cls-1{fill:#010101;}.cls-2{fill:#fff;}</style></defs><title>instagram-solidblack</title><circle class="cls-1" cx="101.29" cy="101.3" r="101.3"/><path class="cls-2" d="M287.44,197.41a7,7,0,1,0,7,7A7,7,0,0,0,287.44,197.41Z" transform="translate(-154.7 -134.43)"/><path class="cls-2" d="M256.49,206.34a29.25,29.25,0,1,0,29.25,29.25A29.28,29.28,0,0,0,256.49,206.34Zm0,48a18.74,18.74,0,1,1,18.73-18.73A18.76,18.76,0,0,1,256.49,254.32Z" transform="translate(-154.7 -134.43)"/><path class="cls-2" d="M279.71,295H232.29a35.71,35.71,0,0,1-35.67-35.67V211.88a35.72,35.72,0,0,1,35.67-35.68h47.42a35.72,35.72,0,0,1,35.67,35.68V259.3A35.71,35.71,0,0,1,279.71,295ZM232.29,187.38a24.53,24.53,0,0,0-24.5,24.5V259.3a24.53,24.53,0,0,0,24.5,24.5h47.42a24.53,24.53,0,0,0,24.5-24.5V211.88a24.53,24.53,0,0,0-24.5-24.5Z" transform="translate(-154.7 -134.43)"/></svg>