<svg id="Layer_1" data-name="Layer 1" xmlns="http://www.w3.org/2000/svg" viewBox="0 0 283.68 62.06"><defs><style>.cls-1,.cls-3{fill:#fff;}.cls-2{fill:none;stroke-width:0.92px;}.cls-2,.cls-3{stroke:#fff;stroke-miterlimit:10;}.cls-3{stroke-width:1.85px;}</style></defs><title>ipharm-white</title><path class="cls-1" d="M335.19,244.43l1.32-1.72a15.81,15.81,0,0,1,4.27-3.67,14.66,14.66,0,0,1,6.59-2.2c3.38-.26,6.69.09,9.61,2a11.56,11.56,0,0,1,3.87,4.45c.19.38.38.77.63,1.25.55-.73,1-1.41,1.54-2a15.36,15.36,0,0,1,7.44-5,19.63,19.63,0,0,1,7-.69,12,12,0,0,1,8.44,3.73,13.88,13.88,0,0,1,3.14,6.32,26.24,26.24,0,0,1,.73,6.25q0,13.44,0,26.88c0,.62-.18.76-.78.75q-5.88,0-11.76,0c-.55,0-.7-.15-.7-.71,0-8.42,0-16.84,0-25.26a9.25,9.25,0,0,0-1.65-5.55,5.57,5.57,0,0,0-4.36-2.33,6.65,6.65,0,0,0-3.43.54A7.73,7.73,0,0,0,363.3,252a13.77,13.77,0,0,0-.72,3.52c-.14,2.17-.14,4.35-.15,6.52q0,9,0,18c0,.58-.15.75-.73.74-3.9,0-7.8,0-11.7,0-.8,0-.8,0-.8-.77,0-8.48,0-17,0-25.44a8.21,8.21,0,0,0-2.19-6,5.54,5.54,0,0,0-3.81-1.58,7,7,0,0,0-4,.8,7.48,7.48,0,0,0-3.17,3.76,11.34,11.34,0,0,0-.87,4.16c0,2.07-.1,4.14-.11,6.22q0,9.09,0,18.18c0,.58-.16.74-.74.73q-5.91,0-11.82,0c-.52,0-.68-.13-.68-.67q0-20.76,0-41.52c0-.58.19-.69.72-.69q5.91,0,11.82,0c.56,0,.71.16.7.71,0,1.72,0,3.44,0,5.16v.65Z" transform="translate(-106.12 -220.82)"/><path class="cls-1" d="M160.83,260.23v.83c0,6.32,0,12.64,0,19,0,.57-.14.75-.73.74q-6,0-12.06,0c-.57,0-.69-.18-.69-.72q0-29.24,0-58.49c0-.54.13-.71.7-.71,7.7,0,15.4-.09,23.09,0a25,25,0,0,1,11.77,2.91,14.62,14.62,0,0,1,7.27,9,33.22,33.22,0,0,1,.86,4.78,20.69,20.69,0,0,1,.13,3.34,18.61,18.61,0,0,1-4,11.05,19.74,19.74,0,0,1-6.43,5.22,25.46,25.46,0,0,1-7.93,2.54,74.86,74.86,0,0,1-11.2.47Zm0-10.38c.12,0,.22,0,.31,0,2.06,0,4.11-.1,6.16-.11a12.51,12.51,0,0,0,4.8-1,7.35,7.35,0,0,0,4.05-4,12.05,12.05,0,0,0,.56-7.12,7.14,7.14,0,0,0-2.75-4.47,11.22,11.22,0,0,0-6.58-2c-1.84-.06-3.68,0-5.52,0h-1Z" transform="translate(-106.12 -220.82)"/><path class="cls-1" d="M269,274.59c-.68.89-1.29,1.66-1.89,2.45a11,11,0,0,1-3.34,2.82,14.06,14.06,0,0,1-6.5,1.87,15.4,15.4,0,0,1-8.29-1.54,11.2,11.2,0,0,1-5.62-7,16.05,16.05,0,0,1-.55-6,12.7,12.7,0,0,1,2.66-7.25,13.51,13.51,0,0,1,5.87-4.11,27.88,27.88,0,0,1,6.68-1.57c2.55-.32,5.09-.71,7.63-1.06,1.1-.15,2.2-.26,3.36-.4a6.33,6.33,0,0,0-.52-3.46,5.7,5.7,0,0,0-4.92-3.43,19.7,19.7,0,0,0-3-.13,21.33,21.33,0,0,0-8.15,1.68c-1.85.77-3.62,1.74-5.46,2.64v-.53c0-2.84,0-5.68,0-8.52,0-.7.29-.94.83-1.17a36.21,36.21,0,0,1,7.2-2.17c1.8-.34,3.62-.64,5.45-.82a34.73,34.73,0,0,1,4.89-.12,20,20,0,0,1,8.24,2,13.7,13.7,0,0,1,7,8.88,20.92,20.92,0,0,1,.85,5.44c0,.88.1,1.75.1,2.63,0,8.05,0,16.11,0,24.17,0,.6-.14.78-.76.77-3.68,0-7.36,0-11,0-.59,0-.73-.18-.72-.75,0-1.61,0-3.23,0-4.85C269.05,275,269,274.86,269,274.59Zm.23-14.09c-.4,0-.66,0-.92,0-1.39.18-2.78.38-4.16.57s-2.88.3-4.28.63c-2.44.58-4.45,1.72-4.88,4.51a4.9,4.9,0,0,0,2,5.17,6.65,6.65,0,0,0,5.13.93,7.9,7.9,0,0,0,6.31-5.24,8.57,8.57,0,0,0,.61-3.25C269.07,262.73,269.16,261.65,269.22,260.5Z" transform="translate(-106.12 -220.82)"/><path class="cls-1" d="M303.1,245.77c.25-.57.49-1.14.75-1.7,1.64-3.44,4.08-5.92,8-6.67a13.55,13.55,0,0,1,5.27,0c.32.07.59.14.59.59,0,3.82,0,7.64,0,11.46a1.3,1.3,0,0,1,0,.21,27.58,27.58,0,0,0-3-.87c-2.64-.46-5.23-.41-7.54,1.23a9.39,9.39,0,0,0-3.59,5.58,14.93,14.93,0,0,0-.49,3.51c-.08,6.91-.1,13.83-.14,20.74,0,.89,0,.89-.86.89-3.9,0-7.8,0-11.7,0-.54,0-.67-.16-.67-.68q0-20.76,0-41.52c0-.52.13-.68.67-.68q5.94,0,11.88,0c.57,0,.7.18.69.72,0,2.16,0,4.32,0,6.48v.65Z" transform="translate(-106.12 -220.82)"/><path class="cls-2" d="M107,250.28V232.14c0-6,5.24-10.86,11.7-10.86h1.49c6.46,0,11.7,4.86,11.7,10.86v18.14Z" transform="translate(-106.12 -220.82)"/><path class="cls-3" d="M107,250.71v19.54a11.7,11.7,0,0,0,11.7,11.7h1.49a11.7,11.7,0,0,0,11.7-11.7V250.71Z" transform="translate(-106.12 -220.82)"/><path class="cls-1" d="M209.67,243.29v.82c1-1.11,1.79-2.19,2.73-3.14a13.46,13.46,0,0,1,7.41-3.9,17.75,17.75,0,0,1,9.33.7,11.24,11.24,0,0,1,6,5.14,16.77,16.77,0,0,1,2.09,6.63c.19,1.87.34,3.76.35,5.64,0,8.28,0,16.56,0,24.84,0,.56-.14.75-.73.74q-5.91,0-11.82,0c-.57,0-.69-.18-.69-.72,0-8.17,0-16.35,0-24.53a10.65,10.65,0,0,0-1.65-6.17,5.61,5.61,0,0,0-4.59-2.43,8,8,0,0,0-3.56.53,7.4,7.4,0,0,0-3.54,3.22,10.56,10.56,0,0,0-1.39,5.53c0,7.94,0,15.88,0,23.81,0,.63-.18.77-.77.76q-5.88,0-11.76,0c-.55,0-.71-.14-.71-.7,0-17.36,0-55.94,0-55.94v-2.51a.79.79,0,0,1,.79-.79h11.65a.79.79,0,0,1,.79.79v21.68Z" transform="translate(-106.12 -220.82)"/></svg>