<svg id="Layer_1" data-name="Layer 1" xmlns="http://www.w3.org/2000/svg" viewBox="0 0 130.65 130.65"><defs><style>.cls-1{fill:none;stroke:#2d8b57;stroke-miterlimit:10;stroke-width:4px;}.cls-2{fill:#2d8b57;}</style></defs><title>profile-icon-greensolid-2</title><circle class="cls-1" cx="263.07" cy="251.49" r="63.32" transform="translate(-274.55 -64.82) rotate(-22.76)"/><path class="cls-2" d="M281.1,221.65a18,18,0,1,1-18-18A18,18,0,0,1,281.1,221.65Z" transform="translate(-197.74 -186.16)"/><path class="cls-2" d="M263.07,245.85h0a33.48,33.48,0,0,0-33.47,33.47h0a8.78,8.78,0,0,0,8.78,8.78h49.37a8.78,8.78,0,0,0,8.78-8.78h0A33.47,33.47,0,0,0,263.07,245.85Z" transform="translate(-197.74 -186.16)"/></svg>