<svg id="Layer_1" data-name="Layer 1" xmlns="http://www.w3.org/2000/svg" viewBox="0 0 383.88 323.66"><defs><style>.cls-1{fill:#2e8b57;}</style></defs><title>shopping-cart-greenstroke</title><path class="cls-1" d="M64.5,215.75a60.58,60.58,0,0,1,2.61-6.93c5.14-9.85,13.31-14.93,24.48-14.95,23.12,0,46.24-.07,69.36.07,3.11,0,4.51-1,5.74-3.81q18.78-43.47,37.87-86.8c2.57-5.86,6.94-8.7,12.13-8,7.87,1,12,8.69,8.73,16.35-7,16.15-14.07,32.25-21.11,48.37-4.83,11.07-9.65,22.15-14.63,33.58H323.24c-.7-1.68-1.28-3.15-1.91-4.6q-16.84-38.59-33.68-77.19c-3.36-7.72.62-15.32,8.48-16.48,5.11-.75,9.69,2,12.1,7.48q11.29,25.71,22.49,51.45c5.29,12.12,10.64,24.21,15.8,36.39,1,2.44,2.31,3.28,5,3.27,23.75-.1,47.5-.23,71.24,0A25.82,25.82,0,0,1,447.88,225c-1.41,7.35-3.18,14.63-4.85,21.93q-17.13,74.8-34.27,149.6c-3.22,14.07-13.07,22.26-27.45,22.27q-124.85.07-249.7,0c-14.21,0-24.17-8.2-27.31-22Q84.71,311.11,65.11,225.35A7.38,7.38,0,0,0,64.5,224Zm90.49,1a10.58,10.58,0,0,0-1.61-.33q-30.74,0-61.48,0c-4.19,0-5.37,1.77-4.38,6.09q19.11,83.55,38.26,167.1c1.51,6.63,1.74,6.78,8.44,6.78H289.79c30.12,0,60.24,0,90.35.05,3.86,0,5.94-1.28,6.84-5.21q19.08-83.94,38.32-167.86c1.3-5.67.25-7-5.57-7h-58.1c-1.07,0-2.14.13-3.64.22.94,2.2,1.74,4,2.49,5.82,2.63,6.4.25,12.93-5.63,15.45s-12,0-14.89-6.22q-2.91-6.28-5.5-12.71a3.55,3.55,0,0,0-3.86-2.61q-74,.09-148.08,0c-2.29,0-3.28.88-4.07,2.85-1.66,4.17-3.47,8.29-5.36,12.37-2.93,6.35-9.27,8.89-15.16,6.21-5.72-2.61-8-9-5.47-15.21C153.21,220.7,154,218.9,155,216.72Z" transform="translate(-64.5 -95.21)"/><path class="cls-1" d="M177.75,317.54q0-19.85,0-39.69c0-7.68,4.42-12.68,11.16-12.72s11.33,4.92,11.33,12.53q0,39.88,0,79.76c0,7.46-4.76,12.72-11.34,12.65s-11.14-5.29-11.15-12.84Q177.74,337.39,177.75,317.54Z" transform="translate(-64.5 -95.21)"/><path class="cls-1" d="M245.25,317.62c0-13.36,0-26.71,0-40.07,0-7.38,4.47-12.35,11.07-12.42,6.8-.09,11.41,4.9,11.41,12.46q0,39.87,0,79.75c0,7.5-4.67,12.74-11.26,12.73s-11.21-5.26-11.22-12.76Q245.23,337.47,245.25,317.62Z" transform="translate(-64.5 -95.21)"/><path class="cls-1" d="M335.25,317.51q0,19.85,0,39.69c0,7.57-4.52,12.77-11.12,12.87s-11.36-5.23-11.37-13q0-39.87,0-79.75c0-7.71,5.28-12.79,12.43-12.14,5.91.54,10,5.32,10.05,11.89C335.28,290.55,335.25,304,335.25,317.51Z" transform="translate(-64.5 -95.21)"/></svg>