<svg id="Layer_1" data-name="Layer 1" xmlns="http://www.w3.org/2000/svg" viewBox="0 0 201.15 201.15"><defs><style>.cls-1{fill:#010101;}.cls-2{fill:#fff;}</style></defs><title>tiktok-solidblack</title><circle class="cls-1" cx="100.57" cy="100.58" r="100.57"/><path class="cls-2" d="M312.46,244.41c-1,.1-2.06.15-3.09.16a33.65,33.65,0,0,1-28.13-15.2v51.75A38.25,38.25,0,1,1,243,242.87h0c.79,0,1.57.07,2.36.12v18.85a20.73,20.73,0,0,0-2.36-.24,19.53,19.53,0,1,0,0,39c10.78,0,20.3-8.5,20.3-19.28l.19-87.89h18a33.58,33.58,0,0,0,31,30v20.95" transform="translate(-159.66 -155.42)"/></svg>