<svg id="Layer_1" data-name="Layer 1" xmlns="http://www.w3.org/2000/svg" viewBox="0 0 202.59 202.59"><defs><style>.cls-1{fill:#010101;}.cls-2{fill:#fff;}</style></defs><title>twitter-solidblack</title><circle class="cls-1" cx="101.29" cy="101.3" r="101.3"/><path class="cls-2" d="M312,207.54a45.68,45.68,0,0,1-11.18,3.19c1.8-.31,4.44-3.56,5.5-4.87a20.74,20.74,0,0,0,3.71-6.77c.09-.19.16-.43,0-.58a.67.67,0,0,0-.59.05,56.75,56.75,0,0,1-13.25,5.07.88.88,0,0,1-.91-.24,10,10,0,0,0-1.16-1.18,23.32,23.32,0,0,0-6.42-3.94,22.34,22.34,0,0,0-9.84-1.58,23.53,23.53,0,0,0-9.34,2.64,24.07,24.07,0,0,0-7.53,6.15,23.26,23.26,0,0,0-4.5,9,24.36,24.36,0,0,0-.23,9.51c.07.53,0,.6-.46.53-18.19-2.71-33.28-9.22-45.52-23.17-.53-.6-.82-.6-1.25,0-5.36,8-2.76,20.93,3.93,27.27a36.74,36.74,0,0,0,2.8,2.46,23.08,23.08,0,0,1-8.78-2.46c-.54-.33-.8-.14-.85.46a14.62,14.62,0,0,0,.14,2.61,23.33,23.33,0,0,0,14.39,18.6,13.52,13.52,0,0,0,2.92.9c-1.76.38-3.57.66-8.62.26-.62-.12-.86.2-.62.8,3.79,10.33,12,13.4,18.1,15.16.82.14,1.64.14,2.46.33-.05.08-.1.08-.15.15-2,3.1-9.08,5.4-12.36,6.55a44.21,44.21,0,0,1-18.77,2.4c-1-.15-1.22-.13-1.5,0s0,.41.29.68c1.28.84,2.59,1.59,3.91,2.31a61.49,61.49,0,0,0,12.55,5c22.55,6.23,48,1.66,64.89-15.17,13.3-13.21,18-31.43,18-49.67,0-.72.84-1.11,1.35-1.49a44.45,44.45,0,0,0,8.83-9.18,2.78,2.78,0,0,0,.58-1.76v-.1C312.42,207.25,312.42,207.34,312,207.54Z" transform="translate(-154.7 -140.95)"/></svg>