<svg id="Layer_1" data-name="Layer 1" xmlns="http://www.w3.org/2000/svg" viewBox="0 0 197.27 197.27"><defs><style>.cls-1{fill:#010101;}.cls-2,.cls-3{fill:#fff;}.cls-3{fill-rule:evenodd;}</style></defs><title>whatsapp-solidblack</title><circle class="cls-1" cx="246.95" cy="248.19" r="98.63" transform="translate(-251.48 97.75) rotate(-45)"/><path class="cls-2" d="M193.66,304l8.22-30.69a56.82,56.82,0,1,1,22.62,22.42ZM226,284.25l1.95,1.16a46.09,46.09,0,1,0-15.78-15.63l1.19,2-4.59,17.13Z" transform="translate(-148.32 -149.56)"/><path class="cls-3" d="M272.5,253.83c-2.33-1.39-5.36-3-8.11-1.82-2.11.86-3.45,4.16-4.82,5.84a2,2,0,0,1-2.61.57,36.76,36.76,0,0,1-18.34-15.71,2.25,2.25,0,0,1,.28-3.07c1.32-1.56,3-3.32,3.34-5.41s-.63-4.54-1.49-6.4c-1.11-2.38-2.34-5.78-4.73-7.13-2.19-1.24-5.08-.54-7,1.05a14.28,14.28,0,0,0-5,11.31,16,16,0,0,0,.44,3.59,29.42,29.42,0,0,0,3.45,7.93,62,62,0,0,0,3.59,5.47,55.47,55.47,0,0,0,15.59,14.48,47.4,47.4,0,0,0,9.73,4.62c3.81,1.26,7.2,2.57,11.31,1.79,4.31-.82,8.56-3.48,10.27-7.63a6.64,6.64,0,0,0,.47-3.9C278.31,256.73,274.68,255.13,272.5,253.83Z" transform="translate(-148.32 -149.56)"/></svg>