<svg id="Layer_1" data-name="Layer 1" xmlns="http://www.w3.org/2000/svg" viewBox="0 0 198.19 198.19"><defs><style>.cls-1{fill:#010101;}.cls-2{fill:#fff;}</style></defs><title>youtub-solidblack</title><circle class="cls-1" cx="99.1" cy="99.1" r="99.1"/><path class="cls-2" d="M311.64,236.41a23.8,23.8,0,0,0-23.79-23.8H227a23.81,23.81,0,0,0-23.8,23.8v28.32A23.8,23.8,0,0,0,227,288.52h60.85a23.79,23.79,0,0,0,23.79-23.79Zm-35.78,16.28-27.29,13.5c-1.07.58-4.7-.2-4.7-1.41V237.07c0-1.23,3.66-2,4.73-1.4l26.12,14.21C275.82,250.51,277,252.09,275.86,252.69Z" transform="translate(-159.49 -151.47)"/></svg>